<?xml version="1.0" standalone="no"?>
<!DOCTYPE svg PUBLIC "-//W3C//DTD SVG 20010904//EN"
 "http://www.w3.org/TR/2001/REC-SVG-20010904/DTD/svg10.dtd">
<svg version="1.0" xmlns="http://www.w3.org/2000/svg"
 width="512.000000pt" height="512.000000pt" viewBox="0 0 512.000000 512.000000"
 preserveAspectRatio="xMidYMid meet">
<metadata>
Created by potrace 1.14, written by Peter Selinger 2001-2017
</metadata>
<g transform="translate(0.000000,512.000000) scale(0.100000,-0.100000)"
fill="#000000" stroke="none">
<path d="M0 2560 l0 -2560 411 0 412 0 -6 35 c-3 19 -1 37 4 41 6 4 6 11 -1
19 -7 9 -8 15 -1 19 6 4 8 13 4 21 -3 9 1 15 8 15 10 0 10 3 1 12 -15 15 -16
58 -1 58 5 0 7 6 3 12 -10 17 -13 48 -3 43 4 -3 9 2 13 10 3 8 1 15 -4 15 -6
0 -10 5 -10 10 0 6 8 10 18 10 10 0 13 3 6 8 -6 4 -16 17 -23 29 -13 26 4 43
22 23 10 -10 8 -12 -8 -6 -18 6 -19 5 -3 -7 10 -8 14 -18 10 -23 -4 -4 0 -3
10 4 13 10 17 10 21 0 4 -9 6 -8 6 3 1 9 -5 19 -13 22 -8 3 -19 14 -25 24 -8
16 -6 19 12 20 12 1 25 -3 30 -10 6 -8 7 -7 4 5 -3 9 -1 19 6 21 7 2 9 8 4 12
-4 5 -13 3 -19 -3 -15 -15 -42 -16 -33 -2 4 6 11 8 16 5 5 -4 9 -2 9 2 0 5 9
14 20 20 16 11 18 10 13 -3 -6 -16 17 -16 29 1 4 6 8 2 8 -9 0 -12 -5 -16 -16
-12 -13 5 -14 1 -9 -25 5 -20 4 -29 -3 -25 -6 4 -8 -3 -4 -16 5 -22 6 -21 18
7 9 23 9 32 1 38 -7 5 -3 7 11 4 15 -4 26 1 33 15 6 11 8 22 5 26 -3 3 -6 0
-6 -6 0 -7 -4 -12 -8 -12 -4 0 -8 9 -8 19 0 13 6 18 19 15 21 -4 39 11 50 38
3 10 12 15 21 12 11 -4 13 0 9 18 -3 13 -3 20 2 16 4 -4 13 -1 21 6 7 7 25 12
39 11 16 -2 25 1 22 8 -5 15 -28 16 -44 4 -7 -5 -13 -6 -13 -1 0 5 -5 2 -10
-6 -8 -13 -10 -12 -10 3 0 10 7 17 18 17 10 0 23 5 28 10 14 14 44 2 44 -19 0
-9 3 -12 8 -6 4 6 13 11 21 13 11 2 11 -2 -2 -21 -16 -25 -13 -37 7 -37 6 0 4
5 -4 11 -12 9 -11 10 8 6 16 -4 22 -1 22 11 0 14 2 14 9 3 7 -11 11 -10 21 5
10 16 11 16 6 2 -6 -20 10 -25 17 -5 6 13 11 -17 7 -43 -1 -10 3 -9 13 5 9 11
13 24 10 29 -4 5 -1 6 6 2 7 -5 10 -11 7 -14 -3 -3 3 -12 15 -20 11 -8 18 -20
15 -27 -3 -8 0 -15 7 -18 8 -2 12 -50 14 -148 1 -79 4 -190 5 -246 l3 -102
438 0 c331 0 437 3 437 12 0 7 4 6 10 -3 7 -11 10 -11 10 -2 0 7 4 11 9 8 5
-4 7 4 3 16 -4 16 -2 19 9 13 11 -7 11 -5 -1 11 -8 10 -10 16 -6 12 15 -13 35
39 27 69 -4 16 -6 38 -5 51 1 15 -4 22 -17 22 -12 0 -16 5 -13 14 3 8 1 17 -4
20 -6 3 -8 15 -5 26 3 13 0 20 -8 20 -9 0 -10 3 -4 8 15 11 14 40 -2 46 -8 3
-11 1 -8 -4 3 -6 1 -10 -4 -10 -6 0 -11 6 -12 13 0 6 -5 0 -10 -14 -9 -23 -61
-60 -58 -41 3 19 -2 23 -16 12 -10 -8 -15 -9 -15 -2 0 6 8 16 18 21 15 9 15
10 -5 11 -16 0 -23 6 -23 20 0 11 -7 20 -15 20 -8 0 -15 6 -15 14 0 8 -5 18
-12 22 -7 5 -8 3 -3 -6 5 -9 4 -11 -3 -6 -7 4 -12 14 -12 22 0 8 -5 14 -12 14
-6 0 -9 3 -5 6 3 4 -7 26 -23 50 -17 23 -30 49 -30 56 0 16 -24 85 -32 93 -3
4 -4 14 -1 25 3 13 13 17 33 16 16 -1 26 2 23 7 -3 5 3 4 13 -2 11 -5 44 -17
76 -26 51 -16 57 -20 62 -51 9 -46 39 -64 107 -64 83 0 94 -6 64 -36 -32 -32
-39 -63 -30 -127 12 -82 15 -107 19 -189 3 -53 9 -82 20 -93 8 -9 21 -34 27
-55 l12 -40 73 0 c44 0 76 5 80 12 5 7 3 8 -6 3 -10 -6 -12 -4 -7 8 4 11 2 14
-9 10 -12 -5 -16 6 -14 42 1 3 -7 13 -16 22 -9 9 -14 26 -11 40 2 13 -1 23 -7
23 -6 0 -5 4 3 9 11 7 11 9 0 13 -16 5 -20 129 -4 140 6 5 6 8 -2 8 -8 0 -9
10 -1 37 5 20 8 49 6 65 -3 18 0 28 8 28 8 0 11 -9 8 -24 -2 -15 2 -26 11 -30
8 -3 15 -16 15 -29 0 -13 5 -28 11 -34 9 -9 8 -16 -5 -28 -20 -20 -20 -31 -2
-38 10 -4 13 -1 9 9 -4 10 0 12 11 8 9 -4 14 -9 12 -12 -3 -3 -1 -11 4 -17 8
-9 4 -12 -16 -9 -25 2 -25 2 -7 -19 10 -12 23 -25 28 -29 6 -4 7 -8 4 -8 -4 0
-3 -18 1 -40 8 -42 -2 -53 -19 -22 -6 9 -11 12 -11 6 0 -6 12 -23 26 -38 21
-21 23 -26 10 -26 -10 0 -15 -4 -11 -10 3 -5 12 -7 20 -3 8 3 15 0 15 -7 0 -6
-4 -9 -9 -5 -5 3 -12 1 -16 -5 -3 -5 -2 -10 3 -10 6 0 8 -9 5 -19 -5 -19 2
-20 143 -20 90 0 143 3 134 9 -11 7 -7 13 18 27 18 10 32 22 32 28 0 5 -5 4
-12 -3 -21 -21 -28 -13 -24 28 2 22 0 40 -6 40 -5 0 -7 -4 -3 -9 3 -5 0 -13
-6 -17 -8 -4 -9 -3 -5 4 4 7 1 12 -6 12 -7 1 -2 8 12 16 25 15 25 15 2 10 -23
-4 -23 -4 -6 15 9 10 13 19 7 19 -16 0 -11 33 8 58 10 13 16 31 14 42 -2 10 7
30 20 44 12 13 20 27 17 30 -3 3 6 6 20 6 14 0 33 9 43 20 10 11 14 20 10 20
-5 0 -4 5 1 10 7 7 19 8 37 1 20 -8 27 -7 27 1 0 6 3 9 6 5 3 -3 1 -14 -5 -24
-6 -10 -11 -12 -11 -5 0 17 -17 15 -17 -2 0 -9 9 -13 24 -11 17 2 23 -2 19
-12 -3 -8 -1 -11 4 -8 6 3 10 -1 10 -9 0 -10 6 -13 18 -9 14 6 15 4 4 -9 -11
-14 -9 -68 3 -89 3 -4 0 -9 -7 -11 -6 -2 -13 -22 -14 -43 -2 -21 -9 -42 -15
-46 -8 -5 -6 -8 7 -11 18 -5 18 -5 -1 -13 -28 -12 -36 -27 -23 -42 8 -10 6
-17 -8 -27 -17 -13 -16 -14 11 -8 27 5 29 4 16 -12 -8 -9 -11 -19 -7 -23 3 -3
6 -2 6 4 0 5 7 10 15 10 8 0 15 -4 15 -8 0 -5 232 -9 515 -9 558 0 520 -4 518
47 -1 7 4 10 9 7 5 -3 7 -13 3 -21 -4 -12 -3 -13 8 -5 8 7 18 8 22 4 5 -4 5
-2 1 5 -3 6 -1 13 6 16 7 2 5 3 -4 2 -22 -4 -24 13 -3 21 8 4 15 15 15 26 0
16 5 19 24 16 17 -4 23 -1 19 9 -3 7 2 13 11 13 9 0 16 6 16 12 0 7 7 2 16
-10 9 -13 22 -21 29 -18 7 2 16 -2 19 -11 5 -12 9 -13 20 -4 12 10 13 8 9 -10
-4 -14 -2 -20 4 -16 6 4 8 -4 5 -20 -3 -15 -1 -24 5 -20 5 3 9 -4 9 -16 l-1
-22 373 -3 372 -2 0 2560 0 2560 -2560 0 -2560 0 0 -2560z m2401 1345 c-17
-30 -31 -57 -31 -60 0 -13 97 9 116 26 26 24 30 24 80 -3 l41 -21 87 56 c48
32 90 57 94 57 4 0 22 -27 39 -60 l32 -60 -82 -2 -82 -2 83 -3 c45 -2 82 -7
82 -12 0 -4 -11 -31 -25 -59 -32 -67 -89 -106 -142 -96 l-35 7 6 51 c3 29 9
66 12 83 l6 31 -158 -5 c-88 -3 -160 -7 -161 -8 -4 -2 41 -112 61 -150 20 -38
20 -59 0 -90 -9 -13 -13 -28 -10 -33 6 -11 -17 -34 -30 -31 -21 4 -24 -3 -10
-29 10 -19 28 -31 61 -41 49 -15 75 -34 75 -57 0 -28 -47 -15 -75 22 -15 19
-29 33 -32 30 -5 -5 -45 27 -136 107 l-32 28 44 -7 44 -6 -22 30 c-11 17 -21
38 -21 48 0 10 -27 46 -61 80 l-61 61 -29 -28 c-16 -16 -34 -29 -39 -29 -5 0
-24 13 -42 29 l-32 29 59 12 c33 7 67 19 75 26 20 16 157 84 170 84 5 0 10
-18 10 -40 0 -22 5 -40 10 -40 6 0 10 22 10 49 0 40 4 53 22 65 12 9 31 16 41
16 17 0 16 -6 -12 -55z m774 -122 c11 -4 -3 -22 -51 -66 -37 -34 -78 -70 -92
-81 l-25 -20 6 57 c3 33 15 73 28 93 22 35 23 36 71 30 26 -4 55 -9 63 -13z
m-535 -142 c0 -4 -12 -20 -26 -34 -14 -15 -24 -32 -22 -39 4 -12 0 -19 -28
-51 -6 -7 -9 -18 -6 -25 5 -16 -4 -15 -55 4 -45 18 -57 34 -24 34 11 0 23 5
26 10 11 17 23 11 18 -9 -3 -10 0 -21 5 -25 5 -3 9 0 9 7 -2 34 29 106 52 120
29 18 51 22 51 8z m60 -11 c0 -5 6 -10 14 -10 26 0 46 -30 43 -66 -2 -29 -6
-34 -27 -33 -31 1 -74 17 -48 18 25 1 29 14 13 44 -7 14 -10 29 -7 33 4 4 -1
4 -11 1 -22 -8 -40 0 -32 14 8 12 55 12 55 -1z m195 -120 c-10 -11 -27 -20
-37 -20 -16 0 -17 3 -8 20 7 12 21 20 37 20 25 0 26 0 8 -20z m-415 -26 c0 -2
-9 0 -20 6 -11 6 -20 13 -20 16 0 2 9 0 20 -6 11 -6 20 -13 20 -16z m250 -24
c-12 -8 -12 -10 3 -16 9 -3 14 -10 11 -15 -3 -5 -9 -7 -14 -4 -11 7 -21 -21
-14 -39 5 -12 -4 -12 -55 2 -33 9 -58 18 -56 20 2 2 24 4 49 5 47 0 71 22 38
34 -14 6 -13 8 8 14 36 10 47 10 30 -1z m161 -45 l34 -14 -47 2 c-46 1 -56 6
-41 20 9 10 17 9 54 -8z m-791 -116 c47 -6 90 -11 95 -11 6 -1 17 -8 24 -15
11 -13 2 -14 -65 -10 -44 3 -90 7 -104 8 -23 3 -101 -4 -207 -17 -43 -5 -50 0
-34 24 7 11 56 19 191 31 8 0 53 -4 100 -10z m1306 -27 c10 -14 37 -13 256 2
215 15 252 15 313 2 39 -8 106 -17 150 -21 91 -8 138 -29 182 -78 63 -72 67
-104 67 -482 -1 -187 -3 -356 -5 -375 -5 -43 -19 -61 -40 -49 -9 4 -25 5 -37
2 -13 -3 -22 -1 -22 6 0 7 -5 9 -10 6 -6 -4 -7 -12 -4 -18 5 -8 3 -8 -7 1 -18
17 -29 15 -29 -5 0 -14 -2 -15 -9 -4 -7 11 -9 11 -14 0 -3 -8 -5 148 -6 346
-1 353 -10 474 -35 476 -6 1 -16 1 -22 0 -6 -1 -19 13 -27 31 -21 44 -74 93
-121 113 -46 19 -141 21 -386 5 -210 -13 -198 -13 -196 7 1 15 -12 19 -89 26
-112 9 -135 14 -135 30 0 19 211 -1 226 -21z m-2058 9 c139 -11 256 -21 259
-24 13 -13 -12 -27 -49 -27 -42 0 -98 -35 -91 -57 2 -6 -1 -15 -8 -19 -7 -4
-9 -3 -5 4 3 6 2 13 -3 16 -5 4 -9 -7 -9 -24 1 -24 4 -28 15 -19 9 8 13 8 13
1 0 -6 -17 -18 -38 -27 -32 -15 -38 -21 -36 -46 1 -20 -4 -30 -16 -34 -11 -3
-20 -18 -22 -38 -3 -18 -9 -41 -13 -51 -5 -12 -5 -17 1 -13 5 3 10 -3 10 -13
0 -20 -31 -24 -54 -7 -7 6 -12 6 -11 1 4 -21 -2 -26 -18 -13 -16 12 -17 12 -6
-2 7 -9 10 -19 6 -22 -3 -4 -1 -7 5 -7 17 0 15 -30 -3 -36 -8 -4 -15 -10 -15
-16 0 -5 4 -7 9 -3 9 5 7 -34 -1 -40 -2 -1 -12 -7 -23 -14 -18 -10 -16 -11 13
-7 18 2 30 0 26 -5 -3 -5 -9 -7 -14 -4 -5 3 -11 1 -15 -5 -3 -5 2 -10 11 -10
10 0 14 -3 11 -7 -4 -3 -1 -13 5 -22 10 -12 8 -12 -8 2 -23 19 -39 23 -29 7 3
-5 0 -10 -7 -11 -7 0 -2 -5 11 -10 18 -7 21 -12 12 -23 -7 -8 -8 -17 -3 -20 5
-3 8 -15 7 -28 -2 -13 4 -33 11 -45 12 -20 12 -22 -1 -17 -8 4 -15 11 -16 18
0 6 -4 2 -9 -9 -11 -26 -12 -44 -1 -27 6 10 10 10 21 -3 8 -10 9 -15 1 -16
-26 -3 -30 -4 -38 -13 -4 -5 -3 -7 2 -3 15 8 45 -48 34 -64 -6 -10 -9 -11 -9
-1 0 6 -4 12 -9 12 -6 0 -6 -12 -1 -29 4 -16 6 -32 3 -35 -3 -3 1 -8 10 -12
16 -6 12 -33 -6 -45 -5 -4 0 -10 12 -14 30 -9 46 -41 25 -49 -12 -4 -15 -2
-10 9 3 8 1 15 -4 15 -18 0 -11 -40 8 -41 16 -1 16 -2 0 -6 -10 -2 -18 -8 -18
-13 0 -4 10 -6 22 -2 17 4 20 2 15 -12 -4 -10 -7 -22 -7 -27 0 -5 -5 -9 -11
-9 -5 0 -8 4 -5 9 3 5 0 11 -8 14 -11 5 -12 0 -3 -23 8 -22 14 -27 24 -18 10
8 13 5 13 -11 0 -12 7 -24 16 -28 11 -4 12 -8 4 -13 -6 -4 -14 -21 -16 -38 -4
-24 -1 -32 10 -32 25 0 26 -15 0 -16 -13 -1 -22 2 -19 6 9 15 -16 23 -28 10
-9 -10 -9 -11 2 -5 10 6 12 2 7 -13 -6 -17 -3 -20 16 -15 23 5 23 5 3 -12 -19
-16 -19 -17 6 -2 25 15 27 14 37 -6 14 -28 22 -156 11 -163 -5 -3 -6 -11 -2
-17 6 -10 13 -100 16 -199 0 -35 3 -38 29 -38 26 0 28 2 23 34 -6 52 8 58 111
46 49 -5 92 -10 96 -10 4 0 5 -6 2 -14 -3 -8 3 -19 16 -26 11 -6 18 -15 15
-21 -4 -5 -15 -3 -27 5 -24 17 -48 11 -48 -14 0 -13 -15 -20 -67 -29 -38 -7
-76 -13 -86 -12 -9 0 -15 -4 -12 -9 3 -4 2 -15 -1 -24 -5 -13 -10 -14 -20 -5
-11 9 -12 5 -5 -18 8 -30 4 -63 -8 -63 -12 0 -11 -44 2 -53 9 -6 8 -7 -3 -6
-37 4 -50 -2 -50 -22 0 -15 -5 -19 -15 -15 -9 3 -18 -1 -21 -8 -3 -8 -26 -17
-52 -21 -49 -7 -65 -9 -144 -20 l-47 -6 1 1001 c0 550 -2 1004 -6 1007 -3 3
-59 2 -123 -4 -65 -5 -120 -8 -122 -6 -2 1 4 12 13 22 31 35 173 38 524 12z
m932 -60 c12 -8 11 -10 -5 -10 -11 1 -47 -7 -79 -16 -54 -15 -60 -15 -75 -1
-11 11 -12 16 -3 16 7 0 11 4 8 9 -7 12 136 13 154 2z m250 -46 c0 -8 -4 -15
-10 -15 -5 0 -10 7 -10 15 0 8 5 15 10 15 6 0 10 -7 10 -15z m-382 -32 c-2
-13 3 -17 17 -16 11 1 14 0 8 -3 -20 -9 -15 -24 8 -24 11 0 17 5 14 10 -3 6
-1 10 4 10 22 0 10 -30 -11 -31 -18 -1 -19 -2 -5 -6 10 -3 14 -10 10 -16 -3
-7 4 -3 16 7 22 20 22 20 14 0 -21 -51 -62 -88 -50 -45 2 11 -3 33 -14 49 -10
17 -19 39 -21 49 -2 10 -7 21 -13 25 -6 4 -2 8 8 8 12 0 17 -6 15 -17z m182 3
c-8 -8 -26 -17 -40 -20 l-25 -7 24 20 c27 25 66 31 41 7z m170 -6 c0 -11 -41
-31 -49 -24 -2 2 -1 10 2 19 7 17 47 21 47 5z m-60 -69 c0 -11 -9 -21 -22 -25
-41 -10 -58 -7 -58 12 0 26 9 32 47 32 26 0 33 -4 33 -19z m-990 -1 c0 -5 -10
-10 -22 -9 -22 0 -22 1 -3 9 11 5 21 9 23 9 1 1 2 -3 2 -9z m1185 -79 c6 -19
-3 -51 -14 -51 -4 0 -15 6 -25 13 -15 11 -17 17 -7 35 14 27 38 28 46 3z
m-257 -28 c-15 -15 -31 -23 -35 -19 -9 8 32 46 50 46 7 0 -1 -12 -15 -27z
m122 -13 c0 -5 -8 -10 -17 -10 -15 0 -16 2 -3 10 19 12 20 12 20 0z m-1176
-81 c18 3 23 0 23 -14 0 -8 -3 -13 -5 -10 -3 3 -11 -3 -19 -13 -13 -15 -13
-15 -4 5 14 27 14 36 1 28 -14 -9 -32 4 -24 17 4 7 9 6 14 -2 4 -6 10 -11 14
-11z m989 -29 c10 -22 16 -44 12 -50 -3 -5 -2 -10 3 -10 6 0 10 -16 10 -36 0
-29 -2 -32 -12 -19 -10 14 -12 14 -13 -4 -1 -12 4 -21 12 -21 8 0 17 -5 21
-12 5 -8 2 -9 -9 -5 -19 7 -20 6 -11 -17 3 -9 11 -13 18 -9 6 4 5 -1 -2 -10
-8 -9 -11 -21 -7 -27 3 -5 1 -10 -5 -10 -7 0 -10 -7 -6 -15 3 -8 2 -15 -3 -15
-10 0 -25 50 -17 57 3 3 0 11 -7 18 -7 6 -25 49 -41 93 l-28 82 23 25 c32 33
41 31 62 -15z m-663 -25 c-7 -8 -18 -15 -24 -15 -6 0 -2 7 8 15 25 19 32 19
16 0z m-350 -189 c0 -3 -4 -8 -10 -11 -5 -3 -10 -1 -10 4 0 6 5 11 10 11 6 0
10 -2 10 -4z m10 -26 c0 -5 -5 -10 -11 -10 -5 0 -7 5 -4 10 3 6 8 10 11 10 2
0 4 -4 4 -10z m1509 -51 c18 -11 31 -22 28 -25 -3 -3 -23 6 -44 20 -45 31 -33
35 16 5z m-1528 -157 c-7 -2 -18 1 -23 6 -8 8 -4 9 13 5 13 -4 18 -8 10 -11z
m977 -84 c22 -22 12 -41 -66 -127 -42 -47 -109 -125 -147 -173 -39 -49 -71
-84 -73 -80 -1 5 17 63 40 130 37 103 52 131 102 191 53 64 62 71 95 71 20 0
42 -5 49 -12z m792 1 c-3 -3 1 -13 9 -22 11 -14 11 -17 0 -18 -10 0 -11 -2 -1
-6 6 -2 10 -9 6 -14 -3 -5 0 -9 7 -9 7 0 4 -7 -7 -15 -16 -13 -16 -14 -1 -9
13 5 16 2 11 -9 -3 -9 -13 -14 -22 -11 -14 5 -14 4 1 -6 9 -6 14 -16 11 -22
-4 -6 -3 -8 3 -5 6 4 13 -2 16 -14 3 -12 0 -22 -9 -26 -8 -3 -11 -10 -8 -15 4
-6 9 -6 14 2 14 22 22 -27 9 -52 -11 -20 -10 -21 3 -10 17 14 44 8 46 -11 2
-31 13 -61 24 -69 7 -4 9 -8 4 -8 -5 0 -3 -7 4 -15 6 -8 8 -20 4 -26 -4 -8 -3
-9 4 -5 7 4 12 5 12 2 0 -2 3 -12 7 -22 4 -12 3 -15 -5 -10 -9 6 -9 1 0 -18 6
-14 16 -26 21 -26 5 0 5 6 -2 13 -8 10 -7 14 3 14 8 0 13 -8 11 -19 -2 -10 0
-18 4 -18 5 0 7 -11 6 -25 -2 -13 3 -29 11 -36 8 -6 14 -17 14 -24 0 -8 5 -15
10 -17 6 -2 12 -13 13 -25 0 -12 4 -20 8 -17 7 4 22 -48 19 -62 -1 -4 2 -10 7
-13 11 -7 112 -288 115 -322 3 -22 -2 -24 -77 -35 -104 -16 -135 -17 -135 -3
0 7 -8 18 -17 26 -10 8 -12 12 -5 8 18 -9 15 7 -23 107 -19 51 -35 99 -35 106
0 6 -12 12 -26 12 -14 0 -23 4 -19 10 4 6 10 8 15 5 5 -3 11 -1 15 5 3 5 2 10
-4 10 -6 0 -8 6 -5 14 3 8 1 17 -5 20 -6 4 -7 14 -4 23 4 9 2 14 -3 10 -13 -8
-70 41 -60 51 4 4 14 -1 21 -11 21 -29 26 -3 9 47 -17 49 -23 53 -42 34 -8 -8
-12 -8 -12 -1 0 6 7 13 15 17 17 6 21 36 5 36 -5 0 -10 -4 -10 -10 0 -5 -5
-10 -12 -10 -8 0 -6 6 4 16 13 13 14 22 6 43 -5 14 -11 34 -13 43 -2 9 -16 53
-30 97 l-27 81 17 91 c10 59 14 110 10 141 l-7 49 38 -3 c22 -2 37 -6 34 -9z
m657 -15 c-3 -3 -12 -4 -19 -1 -8 3 -5 6 6 6 11 1 17 -2 13 -5z m-1342 -22
c-3 -3 -11 0 -18 7 -9 10 -8 11 6 5 10 -3 15 -9 12 -12z m-21 -23 c-3 -6 -12
-8 -20 -5 -8 3 -14 1 -14 -5 0 -7 10 -9 24 -5 14 3 28 2 31 -4 3 -6 -4 -10
-17 -10 -21 -1 -21 -2 -5 -11 18 -10 18 -11 0 -26 -10 -8 -12 -12 -5 -8 13 7
16 -4 6 -29 -3 -9 -11 -13 -18 -10 -6 3 -3 -1 7 -9 18 -15 24 -32 7 -22 -5 3
-10 2 -10 -4 0 -5 4 -12 9 -15 11 -7 9 -25 -3 -45 -7 -10 -5 -13 5 -9 9 4 14
-2 14 -17 0 -12 -4 -21 -10 -19 -5 2 -10 -7 -10 -20 0 -19 3 -22 17 -15 11 6
19 5 24 -3 4 -7 3 -8 -5 -4 -8 5 -10 -2 -7 -26 5 -30 4 -31 -6 -10 -6 12 -17
22 -25 22 -12 0 -11 -3 2 -16 13 -14 14 -19 3 -25 -12 -8 -4 -13 15 -10 5 1 6
-3 3 -8 -4 -5 0 -11 6 -14 7 -2 9 -8 5 -13 -4 -5 -12 -2 -17 6 -7 12 -12 12
-22 2 -9 -9 -9 -12 5 -12 20 0 22 -11 5 -30 -8 -8 -3 -7 14 3 35 22 44 22 22
0 -10 -10 -12 -19 -6 -21 6 -2 3 -17 -10 -38 -12 -20 -18 -45 -15 -59 2 -14 0
-28 -5 -31 -5 -3 -4 -12 3 -20 9 -11 9 -14 0 -14 -8 0 -9 -5 -1 -19 13 -25 13
-34 -1 -25 -7 4 -10 1 -7 -7 3 -8 12 -13 19 -11 8 2 4 -7 -9 -20 -12 -14 -19
-28 -15 -31 3 -4 1 -7 -6 -7 -7 0 -9 -5 -5 -11 4 -8 11 -4 19 11 12 22 12 22
11 -9 -1 -21 -5 -30 -14 -26 -9 3 -10 0 -3 -14 14 -26 -18 -24 -41 3 -9 12
-17 16 -18 9 0 -6 5 -13 11 -15 5 -2 11 -11 13 -20 1 -10 5 -21 9 -24 13 -13
7 -24 -13 -24 -11 0 -20 -4 -20 -9 0 -5 9 -7 20 -4 31 8 36 -23 9 -52 -30 -31
-42 -31 -63 -2 -15 20 -16 21 -14 2 2 -11 18 -27 38 -37 26 -13 30 -17 14 -18
-11 0 -26 6 -33 13 -11 10 -13 10 -7 0 4 -7 6 -13 4 -13 -2 0 -18 -4 -36 -9
-24 -7 -31 -7 -25 2 5 9 3 9 -8 0 -12 -10 -189 -36 -197 -29 -1 2 9 34 22 72
13 38 38 116 57 174 18 58 37 111 42 118 5 6 7 12 3 12 -3 0 -1 12 5 28 6 15
26 74 45 132 63 196 131 390 143 403 6 8 8 16 6 19 -12 12 14 54 34 55 12 1
19 -3 15 -8z m281 -218 c7 -28 10 -51 6 -51 -9 0 -31 68 -31 95 0 29 10 11 25
-44z m-255 29 c0 -5 -2 -10 -4 -10 -3 0 -8 5 -11 10 -3 6 -1 10 4 10 6 0 11
-4 11 -10z m593 -100 c3 -11 1 -20 -4 -20 -5 0 -9 9 -9 20 0 11 2 20 4 20 2 0
6 -9 9 -20z m1352 -361 c69 -183 124 -333 122 -334 -1 -1 -44 -9 -95 -17 l-94
-15 -23 52 c-13 29 -26 67 -30 84 -4 17 -10 31 -14 31 -4 0 -7 8 -8 18 -1 27
-51 156 -61 160 -5 1 -18 10 -28 18 -18 14 -18 15 4 4 15 -7 22 -7 22 0 0 5
-4 10 -10 10 -5 0 -9 3 -8 8 4 14 -35 121 -43 117 -4 -3 -5 4 -2 14 6 25 -15
63 -30 55 -9 -5 -9 -4 0 6 9 9 8 22 -3 52 -22 62 -21 63 63 65 60 2 79 6 86
19 9 15 10 15 19 1 4 -9 65 -165 133 -348z m-1327 256 c-3 -3 -9 2 -12 12 -6
14 -5 15 5 6 7 -7 10 -15 7 -18z m26 -23 c2 -4 -5 -9 -17 -9 -17 -2 -19 0 -7
7 18 12 18 12 24 2z m-644 -112 c0 -5 -5 -10 -11 -10 -5 0 -7 5 -4 10 3 6 8
10 11 10 2 0 4 -4 4 -10z m1695 -68 c-3 -3 -11 0 -18 7 -9 10 -8 11 6 5 10 -3
15 -9 12 -12z m-965 -92 c0 -5 -7 -7 -15 -4 -8 4 -15 8 -15 10 0 2 7 4 15 4 8
0 15 -4 15 -10z m1005 -10 c3 -5 1 -10 -4 -10 -6 0 -11 5 -11 10 0 6 2 10 4
10 3 0 8 -4 11 -10z m-986 -84 c9 -11 9 -16 -1 -22 -7 -4 -10 -4 -6 1 4 4 3
14 -3 22 -6 7 -9 13 -6 13 2 0 10 -6 16 -14z m-509 -763 c-11 -17 -11 -17 -6
0 3 10 7 26 7 35 1 15 2 15 6 0 2 -10 -1 -25 -7 -35z m-630 23 c0 -11 -19 -15
-25 -6 -3 5 1 10 9 10 9 0 16 -2 16 -4z m-870 -51 c0 -2 -7 -8 -15 -15 -12
-10 -15 -10 -15 2 0 8 7 15 15 15 8 0 15 -1 15 -2z m3 -34 c-9 -11 -23 -17
-31 -14 -11 5 -9 9 9 19 34 19 41 17 22 -5z m71 -9 c3 -5 -1 -9 -9 -9 -8 0
-12 4 -9 9 3 4 7 8 9 8 2 0 6 -4 9 -8z m1276 -144 c0 -4 -5 -10 -12 -14 -7 -4
-8 -3 -4 4 4 7 3 12 -2 12 -6 0 -12 7 -16 15 -4 12 -2 13 14 2 11 -6 20 -15
20 -19z m127 -150 c-3 -8 -6 -5 -6 6 -1 11 2 17 5 13 3 -3 4 -12 1 -19z m-363
-34 c3 -8 2 -12 -4 -9 -6 3 -10 10 -10 16 0 14 7 11 14 -7z m1986 -160 c0 -8
-5 -12 -10 -9 -6 4 -8 11 -5 16 9 14 15 11 15 -7z m-1110 -56 c0 -5 -4 -6 -10
-3 -5 3 -10 2 -10 -3 0 -6 -10 -8 -21 -5 -20 6 -21 7 -5 19 19 13 46 9 46 -8z
m-1506 -20 c-3 -5 -10 -6 -15 -3 -5 4 -13 -4 -18 -17 -6 -14 -10 -17 -10 -7
-1 8 4 20 9 25 13 13 41 14 34 2z m-104 -23 c-12 -14 -7 -20 15 -15 6 1 6 -2
2 -6 -13 -13 -37 -13 -37 0 0 7 5 17 12 24 17 17 23 15 8 -3z m45 -3 c-3 -3
-11 0 -18 7 -9 10 -8 11 6 5 10 -3 15 -9 12 -12z m1568 -5 c4 3 7 1 7 -5 0 -6
-8 -10 -18 -9 -10 0 -18 9 -18 20 0 16 2 16 12 3 6 -9 14 -13 17 -9z m-1495
-6 c3 -10 0 -10 -17 -2 -25 14 -27 20 -4 17 9 -2 19 -8 21 -15z m19 -3 c-3 -8
-6 -5 -6 6 -1 11 2 17 5 13 3 -3 4 -12 1 -19z m633 4 c0 -4 -9 -8 -20 -8 -11
0 -20 4 -20 8 0 4 9 8 20 8 11 0 20 -4 20 -8z"/>
<path d="M4110 3119 c0 -5 4 -8 9 -4 5 3 12 -3 14 -12 4 -14 5 -13 6 5 1 13
-5 22 -14 22 -8 0 -15 -5 -15 -11z"/>
<path d="M4238 2313 c6 -2 9 -10 6 -15 -4 -7 -2 -8 5 -4 13 9 5 26 -12 25 -9
0 -8 -2 1 -6z"/>
<path d="M4320 2300 c-9 -6 -10 -10 -3 -10 6 0 15 5 18 10 8 12 4 12 -15 0z"/>
<path d="M1265 2840 c3 -5 8 -10 11 -10 2 0 4 5 4 10 0 6 -5 10 -11 10 -5 0
-7 -4 -4 -10z"/>
<path d="M1233 2355 c0 -8 4 -15 9 -15 4 0 8 4 8 9 0 6 -4 12 -8 15 -5 3 -9
-1 -9 -9z"/>
<path d="M1291 2108 c0 -13 3 -17 6 -10 2 6 10 9 16 5 7 -4 6 1 -2 10 -18 22
-21 21 -20 -5z"/>
<path d="M1290 2070 c0 -5 5 -10 11 -10 5 0 7 5 4 10 -3 6 -8 10 -11 10 -2 0
-4 -4 -4 -10z"/>
<path d="M1318 1951 c-16 -18 -15 -20 2 -18 10 1 16 5 13 10 -3 5 1 13 8 18 8
5 9 9 4 9 -6 0 -18 -9 -27 -19z"/>
<path d="M2309 2173 c-13 -16 -12 -17 4 -4 16 13 21 21 13 21 -2 0 -10 -8 -17
-17z"/>
<path d="M2338 1773 c7 -3 16 -2 19 1 4 3 -2 6 -13 5 -11 0 -14 -3 -6 -6z"/>
<path d="M2287 1358 c-10 -11 -16 -22 -14 -25 8 -7 47 21 47 34 0 18 -12 15
-33 -9z"/>
<path d="M2052 1359 c2 -7 -4 -13 -12 -14 -9 0 -15 -9 -14 -22 0 -12 -3 -20
-8 -17 -4 3 -8 0 -8 -5 0 -21 39 -11 46 12 12 35 13 47 3 53 -5 3 -8 0 -7 -7z"/>
<path d="M1040 520 c0 -5 5 -10 11 -10 5 0 7 5 4 10 -3 6 -8 10 -11 10 -2 0
-4 -4 -4 -10z"/>
<path d="M2181 314 c0 -11 3 -14 6 -6 3 7 2 16 -1 19 -3 4 -6 -2 -5 -13z"/>
<path d="M2530 181 c0 -6 4 -12 8 -15 5 -3 9 1 9 9 0 8 -4 15 -9 15 -4 0 -8
-4 -8 -9z"/>
<path d="M4260 125 c0 -8 4 -15 10 -15 5 0 7 7 4 15 -4 8 -8 15 -10 15 -2 0
-4 -7 -4 -15z"/>
<path d="M2997 83 c-4 -3 -7 -13 -7 -21 0 -18 13 -7 16 13 2 17 1 18 -9 8z"/>
<path d="M2918 53 c7 -3 16 -2 19 1 4 3 -2 6 -13 5 -11 0 -14 -3 -6 -6z"/>
<path d="M2980 25 c0 -7 30 -13 34 -7 3 4 -4 9 -15 9 -10 1 -19 0 -19 -2z"/>
</g>
</svg>
